<?xml version="1.0" encoding="utf-8"?>
<!-- Generator: Adobe Illustrator 17.1.0, SVG Export Plug-In . SVG Version: 6.00 Build 0)  -->
<!DOCTYPE svg PUBLIC "-//W3C//DTD SVG 1.1//EN" "http://www.w3.org/Graphics/SVG/1.1/DTD/svg11.dtd">
<svg version="1.1" id="Layer_1" xmlns="http://www.w3.org/2000/svg" xmlns:xlink="http://www.w3.org/1999/xlink" x="0px" y="0px"
	 viewBox="0 0 30 30" enable-background="new 0 0 30 30" xml:space="preserve">
<path fill="none" stroke="#000000" stroke-linecap="round" stroke-linejoin="round" d="M9,11.2h9c0.4,0,0.8,0.3,0.8,0.8v3.4
	c0,1-0.8,1.9-1.9,1.9h-0.4c-0.8,0-1.5-0.7-1.5-1.5s-0.7-1.5-1.5-1.5S12,14.9,12,15.8s-0.7,1.5-1.5,1.5h-0.4c-1,0-1.9-0.8-1.9-1.9V12
	C8.2,11.6,8.6,11.2,9,11.2z"/>
<path fill="none" stroke="#000000" stroke-linecap="round" stroke-linejoin="round" d="M13.5,18.8c0,0.8,0.7,1.5,1.5,1.5h2.6
	c2.3,0,4.1-1.8,4.1-4.1V9"/>
</svg>
