<svg width="30" height="30" viewBox="0 0 30 30" fill="none" xmlns="http://www.w3.org/2000/svg">
<rect width="30" height="30" fill="white"/>
<path fill-rule="evenodd" clip-rule="evenodd" d="M15 15C17.07 15 18.75 13.4925 18.75 11.625C18.75 9.7575 17.07 8.25 15 8.25V15Z" stroke="black" stroke-linecap="round" stroke-linejoin="round"/>
<path fill-rule="evenodd" clip-rule="evenodd" d="M15 15C15 17.07 16.5075 18.75 18.375 18.75C20.2425 18.75 21.75 17.07 21.75 15H15Z" stroke="black" stroke-linecap="round" stroke-linejoin="round"/>
<path fill-rule="evenodd" clip-rule="evenodd" d="M15 15C12.93 15 11.25 16.5075 11.25 18.375C11.25 20.2425 12.93 21.75 15 21.75V15Z" stroke="black" stroke-linecap="round" stroke-linejoin="round"/>
<path fill-rule="evenodd" clip-rule="evenodd" d="M15 15C15 12.93 13.4925 11.25 11.625 11.25C9.7575 11.25 8.25 12.93 8.25 15H15Z" stroke="black" stroke-linecap="round" stroke-linejoin="round"/>
</svg>
